# xmcd CD database file
#
# Track frame offsets:
#	150
#	19738
#	40560
#
# Disc length: 895 seconds
#
# Revision: 2
# Processed by: cddbd v1.4b41PL1 Copyright (c) Steve Scherf et al.
# Submitted via: Feurio! 1.50.2ß - http://www.feurio.com
#
DISCID=16037d03
DTITLE=Joe Cocker - Let The Healing Begin
DYEAR=1900
DGENRE=
TTITLE0=Let The Healing Begin, single edit
TTITLE1=Up Where We Belong
TTITLE2=You Can Leave Your Hat On
EXTD=
EXTT0=
EXTT1=
EXTT2=
PLAYORDER=
